<svg width="331" height="304" viewBox="0 0 331 304" fill="none" xmlns="http://www.w3.org/2000/svg">
<g filter="url(#filter0_d_1_273)">
<mask id="mask0_1_273" style="mask-type:luminance" maskUnits="userSpaceOnUse" x="-9" y="-8" width="336" height="304">
<path d="M327 -8H-9V296H327V-8Z" fill="white"/>
</mask>
<g mask="url(#mask0_1_273)">
<mask id="mask1_1_273" style="mask-type:luminance" maskUnits="userSpaceOnUse" x="-9" y="-8" width="336" height="304">
<path d="M327 -8H-9V296H327V-8Z" fill="white"/>
</mask>
<g mask="url(#mask1_1_273)">
<path d="M-8.32435 241.836C-5.3912 240.4 -4.146 236.589 -0.96381 235.595C2.3014 234.574 5.9263 236.589 8.9148 234.38C10.2153 233.414 11.1838 231.812 12.7611 231.232C14.1447 230.735 15.5836 231.287 16.9118 231.702C18.0463 232.061 19.1808 232.392 20.3153 232.751C24.8811 234.159 29.4192 235.54 33.9849 236.948C39.1594 238.522 44.3063 240.124 49.4808 241.698C49.9789 241.864 50.2002 241.063 49.7021 240.897C40.2386 237.998 30.8027 235.098 21.3392 232.199C19.1255 231.536 16.8288 230.514 14.5321 230.238C12.9271 230.045 11.6543 230.68 10.5197 231.729C8.9425 233.193 7.7526 234.546 5.4559 234.656C3.5466 234.767 1.6649 234.27 -0.24437 234.574C-4.17368 235.181 -5.39121 239.461 -8.71175 241.091C-9.20983 241.367 -8.79476 242.085 -8.32435 241.836Z" fill="#E8E8E8"/>
<path d="M41.4007 238.357C43.3654 238.854 44.915 236.893 46.6859 236.313C49.0656 235.512 51.6114 235.844 53.7697 237.086C54.2402 237.362 54.6552 236.644 54.1848 236.368C52.3585 235.291 50.2832 234.85 48.1802 235.126C47.267 235.236 46.4092 235.485 45.5791 235.844C44.3892 236.368 43.0057 237.887 41.6221 237.556C41.0963 237.418 40.875 238.219 41.4007 238.357Z" fill="#E8E8E8"/>
<path d="M62.7353 236.286C60.8813 234.767 59.1103 233.138 57.4501 231.398C56.6753 230.597 55.9282 229.741 55.2087 228.885C54.7936 228.388 54.3786 227.891 53.9912 227.394C53.7145 227.035 53.4377 226.676 53.1887 226.317C52.746 225.875 52.746 225.323 53.2164 224.715C53.5484 224.853 54.0742 224.522 53.7975 224.135C52.1095 221.871 50.8643 219.386 50.0619 216.679C49.8958 216.845 49.7298 217.011 49.5638 217.176C50.4769 217.425 51.141 217.894 51.6391 218.668C51.9158 219.109 52.6353 218.723 52.3586 218.253C48.2356 211.129 44.8597 203.618 42.3139 195.803C42.0926 195.941 41.8435 196.079 41.6221 196.217C53.2164 207.594 58.4739 223.417 68.2418 236.148C68.5739 236.562 69.2933 236.148 68.9613 235.733C59.1657 222.948 53.8528 207.07 42.2032 195.637C41.9265 195.361 41.3731 195.637 41.5115 196.051C44.0849 203.949 47.4608 211.516 51.6391 218.695C51.8882 218.557 52.1095 218.419 52.3586 218.281C51.7221 217.315 50.892 216.679 49.7852 216.403C49.4808 216.32 49.1764 216.597 49.2871 216.9C50.1172 219.662 51.3901 222.23 53.1057 224.55C53.2994 224.356 53.4931 224.163 53.6868 223.97C52.912 223.611 52.0542 223.97 51.8605 224.881C51.6115 226.179 53.1887 227.615 53.9082 228.526C56.3709 231.591 59.1657 234.38 62.2095 236.865C62.5692 237.197 63.1503 236.617 62.7353 236.286Z" fill="#E8E8E8"/>
<path d="M59.8297 219.027C54.7382 211.433 50.6152 203.286 47.5714 194.671C47.4884 194.836 47.3777 195.002 47.2947 195.168C48.2355 194.947 49.038 195.306 49.5637 196.134C49.8404 196.604 50.5045 196.19 50.2832 195.72C45.9941 186.469 41.6221 176.832 41.9265 166.421C41.6774 166.504 41.4007 166.559 41.1517 166.642C48.5399 181.83 55.5684 197.211 62.2095 212.731C62.4032 213.172 63.1226 212.841 62.9566 212.399C61.8497 209.085 60.7706 205.744 59.6637 202.43C59.138 200.801 58.5845 199.2 58.0588 197.57C57.6991 196.493 56.9243 194.146 58.4739 193.566C58.3078 193.511 58.1695 193.428 58.0034 193.373C59.9958 197.266 61.9604 201.16 63.9527 205.054C64.2018 205.523 64.9213 205.109 64.6722 204.64C62.5139 200.415 61.5177 195.748 61.7114 190.998C61.4347 191.026 61.158 191.081 60.9089 191.108C66.6645 205.385 73.3333 219.303 80.8322 232.751C81.0812 233.22 81.8007 232.806 81.5516 232.337C74.0804 218.944 67.4393 205.109 61.7114 190.888C61.5454 190.473 60.9089 190.501 60.9089 190.998C60.7152 195.886 61.7667 200.663 63.9804 205.054C64.2295 204.916 64.4508 204.778 64.6999 204.64C62.7075 200.746 60.7429 196.852 58.7506 192.959C58.6676 192.821 58.4462 192.71 58.2802 192.765C55.513 193.787 57.284 197.736 57.8928 199.586C59.3317 203.922 60.7429 208.285 62.1818 212.62C62.4308 212.51 62.6799 212.399 62.9289 212.289C56.2878 196.769 49.2593 181.388 41.8711 166.2C41.6774 165.814 41.0963 166.035 41.0963 166.421C40.7643 176.97 45.2193 186.773 49.5637 196.134C49.8128 195.996 50.0341 195.858 50.2832 195.72C49.5637 194.588 48.4015 194.091 47.0733 194.367C46.8519 194.422 46.7136 194.671 46.7966 194.864C49.8681 203.535 54.0188 211.764 59.138 219.413C59.4147 219.883 60.1341 219.468 59.8297 219.027Z" fill="#E8E8E8"/>
<path d="M5.1515 272.405C14.7257 267.794 24.8257 263.099 35.7558 264.204C40.9303 264.728 45.9388 266.22 51.0856 266.882C53.6867 267.214 56.3155 267.352 58.9166 267.048C61.3517 266.744 63.6484 265.861 66.0281 265.336C69.0996 264.646 71.8944 265.364 74.8552 266.192C77.2903 266.855 79.6977 267.407 82.2157 266.827C82.7415 266.717 82.5201 265.916 81.9944 266.026C76.9582 267.214 72.2264 263.596 67.1349 264.314C64.6169 264.673 62.2648 265.667 59.7744 266.109C57.1456 266.551 54.4615 266.496 51.8051 266.164C46.5752 265.557 41.4837 264.01 36.2262 263.431C31.0517 262.851 25.9325 263.513 20.9794 264.949C15.3345 266.606 9.9939 269.147 4.7364 271.687C4.2383 271.908 4.6811 272.626 5.1515 272.405Z" fill="#E8E8E8"/>
<path d="M61.3241 295.297C64.5616 293.917 67.7438 292.398 70.8153 290.686C72.4202 289.775 73.9975 288.836 75.5747 287.842C76.986 286.93 78.3972 285.632 79.9468 284.97C81.6901 284.252 84.3188 285.605 86.0621 286.13C87.9161 286.709 89.7701 287.262 91.596 287.842C95.387 289.001 99.178 290.161 102.942 291.321C103.44 291.487 103.661 290.686 103.163 290.52C99.123 289.278 95.055 288.035 91.015 286.792C89.0783 286.185 87.1413 285.605 85.2043 284.997C83.7101 284.528 81.8284 283.561 80.2512 283.948C78.7846 284.307 77.4564 285.577 76.2112 286.406C74.6062 287.455 72.946 288.477 71.2857 289.443C67.9375 291.349 64.4786 293.061 60.909 294.552C60.4109 294.773 60.8537 295.491 61.3241 295.297Z" fill="#E8E8E8"/>
<path d="M95.747 296.154C97.85 295.104 99.953 294.027 102.056 292.978C103.993 291.984 106.068 290.658 108.282 290.465C110.523 290.244 112.267 291.708 114.204 292.564C115.836 293.282 117.607 293.696 119.378 293.806C123.529 294.027 127.403 291.956 131.526 292.177C134.819 292.37 138.139 295.077 141.377 293.365C141.847 293.116 141.432 292.398 140.962 292.647C138.942 293.724 136.756 292.674 134.763 292.039C133.048 291.487 131.387 291.238 129.589 291.432C125.327 291.873 121.426 293.668 117.054 292.647C113.429 291.818 110.662 288.808 106.76 289.94C104.961 290.465 103.274 291.459 101.613 292.288C99.51 293.337 97.407 294.414 95.304 295.463C94.862 295.684 95.277 296.402 95.747 296.154Z" fill="#E8E8E8"/>
<path d="M111.907 290.161C110.191 288.67 108.642 287.013 107.369 285.108C106.788 284.252 106.262 283.34 105.764 282.429C105.515 281.96 105.294 281.49 105.1 281.021C104.934 280.634 104.768 280.275 104.629 279.889C104.38 279.474 104.491 279.088 104.962 278.729C105.211 278.618 105.46 278.508 105.709 278.397C102.665 273.924 100.756 268.843 100.119 263.486C99.87 263.596 99.649 263.679 99.4 263.79C99.898 264.425 100.396 265.06 100.922 265.723C101.226 266.109 101.807 265.612 101.586 265.225C96.771 256.637 94.197 246.972 94.142 237.142C93.893 237.252 93.672 237.335 93.423 237.445C95.304 238.964 96.743 240.842 97.629 243.079C97.878 242.968 98.127 242.858 98.376 242.747C96.217 238.191 95.775 233.055 97.048 228.195C96.771 228.195 96.522 228.195 96.245 228.195C101.918 244.404 107.563 260.586 113.235 276.796C113.401 277.293 114.204 277.072 114.038 276.575C111.188 268.263 109.776 259.537 109.859 250.728C109.61 250.838 109.389 250.921 109.14 251.032C110.828 252.55 111.879 254.456 112.267 256.693C112.35 257.162 113.097 257.052 113.069 256.582C112.986 254.898 112.876 253.186 112.793 251.501C112.571 251.612 112.377 251.75 112.156 251.86C113.623 252.799 113.899 255.284 114.37 256.831C114.868 258.488 115.366 260.144 115.892 261.829C116.916 265.253 117.967 268.65 118.991 272.074C121.066 278.895 123.142 285.743 125.217 292.564C125.383 293.061 126.185 292.867 126.019 292.343C123.778 284.997 121.564 277.624 119.323 270.279C118.244 266.689 117.137 263.099 116.058 259.509C115.504 257.659 114.951 255.837 114.397 253.986C114.038 252.854 113.623 251.832 112.599 251.17C112.35 251.004 111.962 251.225 111.962 251.529C112.045 253.213 112.156 254.925 112.239 256.61C112.516 256.582 112.793 256.527 113.042 256.499C112.654 254.124 111.492 252.053 109.693 250.452C109.417 250.203 109.002 250.369 108.974 250.755C108.891 259.62 110.302 268.429 113.18 276.823C113.457 276.741 113.706 276.685 113.982 276.603C108.31 260.393 102.665 244.211 96.992 228.001C96.854 227.642 96.3 227.587 96.19 228.001C94.862 233.11 95.36 238.439 97.601 243.189C97.795 243.603 98.542 243.3 98.348 242.858C97.407 240.483 95.941 238.467 93.921 236.865C93.644 236.645 93.201 236.783 93.201 237.169C93.257 247.138 95.858 256.969 100.756 265.667C100.977 265.502 101.198 265.336 101.42 265.17C100.922 264.535 100.423 263.9 99.898 263.237C99.676 262.961 99.151 263.182 99.178 263.541C99.815 269.064 101.752 274.283 104.879 278.867C105.155 279.254 105.709 279.005 105.626 278.536C105.487 277.762 104.574 277.486 103.938 277.956C102.776 278.784 103.91 280.745 104.325 281.684C105.902 285.191 108.254 288.256 111.16 290.769C111.741 291.072 112.322 290.493 111.907 290.161Z" fill="#E8E8E8"/>
<path d="M82.9629 228.222C82.6031 223.031 92.039 226.013 94.668 226.51C98.984 227.311 103.274 228.112 107.59 228.913C116.196 230.514 124.829 232.116 133.435 233.718C133.961 233.828 134.182 233.027 133.656 232.917C123.778 231.067 113.927 229.244 104.048 227.394C99.206 226.483 94.363 225.571 89.5209 224.688C87.7777 224.356 85.7577 223.997 84.1251 224.909C82.8798 225.571 82.0497 226.786 82.1604 228.222C82.1604 228.747 83.0182 228.747 82.9629 228.222Z" fill="#E8E8E8"/>
<path d="M127.707 232.806C130.585 233.11 132.356 230.376 134.597 229.051C136.507 227.946 138.167 228.802 140.132 229.189C142.318 229.631 144.559 229.686 146.773 229.41C147.298 229.354 147.298 228.526 146.773 228.581C144.282 228.885 141.792 228.775 139.357 228.167C137.89 227.78 136.562 227.311 135.096 227.891C132.494 228.885 130.723 232.309 127.707 231.978C127.182 231.923 127.182 232.751 127.707 232.806Z" fill="#E8E8E8"/>
<path d="M180.476 285.909C187.117 283.589 193.814 281.269 200.676 279.612C207.843 277.9 215.065 277.21 222.426 277.431C229.703 277.652 236.925 278.48 244.175 279.143C251.453 279.833 258.73 280.496 266.008 281.187C274.365 281.96 282.749 282.733 291.106 283.534C291.631 283.589 291.631 282.761 291.106 282.705C276.191 281.325 261.276 279.944 246.334 278.536C231.972 277.21 217.528 275.249 203.222 278.204C195.363 279.833 187.781 282.484 180.227 285.108C179.757 285.273 179.978 286.074 180.476 285.909Z" fill="#E8E8E8"/>
<path d="M209.725 258.736C214.678 257.687 219.326 255.616 224.003 253.738C229.011 251.75 234.075 250.369 239.443 249.9C244.867 249.43 250.318 249.706 255.714 250.038C261.138 250.369 266.561 250.756 272.012 251.142C278.349 251.612 284.714 252.136 291.05 252.689C291.576 252.744 291.576 251.915 291.05 251.86C279.816 250.866 268.581 250.01 257.319 249.292C246.61 248.602 236.068 248.326 225.857 252.109C220.433 254.125 215.176 256.693 209.476 257.908C209.005 258.046 209.199 258.847 209.725 258.736Z" fill="#E8E8E8"/>
<path d="M273.507 226.897C277.464 223.887 281.642 220.932 286.069 218.668C288.228 217.563 290.552 216.679 292.987 216.486C295.616 216.265 298.245 216.79 300.818 217.121C306.048 217.756 311.306 218.143 316.563 218.474C320.05 218.695 324.477 219.192 326.94 216.155C327.272 215.74 326.691 215.161 326.359 215.575C323.564 219.027 317.67 217.729 313.851 217.48C308.594 217.121 303.392 216.624 298.162 215.961C295.92 215.685 293.707 215.464 291.465 215.879C289.252 216.265 287.176 217.149 285.212 218.198C280.95 220.462 276.91 223.279 273.064 226.206C272.677 226.51 273.092 227.228 273.507 226.897Z" fill="#E8E8E8"/>
<path d="M121.177 222.34C125.106 219.386 129.063 216.458 132.992 213.504C136.756 210.687 140.27 207.732 145.195 207.484C149.844 207.263 154.604 207.788 159.225 208.174C164.206 208.588 169.159 209.141 174.084 209.831C178.235 210.411 183.188 211.957 187.117 209.803C187.588 209.555 187.173 208.837 186.702 209.085C184.682 210.19 182.441 210.19 180.2 209.914C177.792 209.61 175.385 209.196 172.977 208.864C168.329 208.229 163.652 207.705 158.948 207.318C154.327 206.931 149.54 206.379 144.919 206.655C140.63 206.904 137.448 209.113 134.099 211.626C129.644 214.94 125.217 218.281 120.762 221.595C120.347 221.954 120.762 222.672 121.177 222.34Z" fill="#E8E8E8"/>
<path d="M276.855 251.529C277.104 249.706 277.464 247.939 277.99 246.172C278.239 245.343 278.488 244.515 278.82 243.686C279.013 243.189 279.539 242.361 280.259 242.554C280.618 242.665 280.784 243.907 280.812 244.156C280.867 244.598 281.476 244.736 281.614 244.266C282.915 240.041 284.409 235.402 288.394 232.944C288.173 232.834 287.979 232.696 287.757 232.585C287.757 233.276 287.73 233.994 287.73 234.684C287.73 235.071 288.311 235.264 288.505 234.905C290.967 229.796 293.651 224.439 298.632 221.346C298.439 221.181 298.217 221.043 298.023 220.877C295.533 227.311 292.628 233.579 289.335 239.655C289.113 240.041 289.667 240.538 289.999 240.152C291.853 237.943 293.734 235.733 296.17 234.132C295.976 233.938 295.782 233.745 295.588 233.552C292.517 240.014 289.169 246.31 285.488 252.44C285.212 252.909 285.931 253.324 286.208 252.854C289.86 246.724 293.236 240.428 296.308 233.966C296.474 233.635 296.114 233.138 295.727 233.386C293.236 235.043 291.299 237.28 289.39 239.544C289.611 239.71 289.833 239.876 290.054 240.041C293.375 233.911 296.308 227.587 298.826 221.07C298.964 220.739 298.494 220.435 298.217 220.601C293.098 223.776 290.331 229.216 287.785 234.463C288.034 234.546 288.311 234.601 288.56 234.684C288.56 233.994 288.588 233.276 288.588 232.585C288.588 232.282 288.228 232.061 287.951 232.226C283.801 234.794 282.168 239.599 280.812 244.045C281.089 244.073 281.365 244.128 281.614 244.156C281.476 242.747 280.203 240.345 278.654 242.14C277.879 243.051 277.574 244.542 277.242 245.675C276.689 247.497 276.302 249.375 276.025 251.28C275.997 251.833 276.772 252.053 276.855 251.529Z" fill="#E8E8E8"/>
<path d="M83.5164 204.916C85.6747 203.756 87.8608 202.596 90.2405 201.961C92.759 201.298 95.249 201.519 97.767 201.851C102.776 202.513 107.784 203.176 112.765 203.839C113.291 203.922 113.291 203.093 112.765 203.01C107.424 202.292 102.056 201.519 96.716 200.884C94.253 200.58 91.901 200.58 89.521 201.271C87.252 201.933 85.149 203.066 83.0737 204.17C82.6032 204.474 83.046 205.164 83.5164 204.916Z" fill="#E8E8E8"/>
<path d="M251.84 17.6074C253.833 15.923 256.627 16.2543 258.813 17.3313C260.474 18.1321 261.83 19.7614 263.767 19.8442C265.565 19.8994 267.059 18.6844 268.581 17.8836C269.605 17.3589 270.657 16.9999 271.819 17.2484C273.064 17.497 274.143 18.2149 275.278 18.712C279.013 20.3413 281.504 18.0769 284.658 16.2819C285.544 15.7849 286.485 15.3431 287.508 15.2602C288.809 15.1498 289.971 15.7297 291.133 16.2267C292.96 16.9999 294.343 17.3037 296.197 16.5581C298.106 15.8125 299.656 15.923 301.565 16.6133C302.783 17.0551 303.945 17.6074 305.218 17.8836C307.127 18.3254 309.175 18.2149 310.614 16.7514C311.001 16.3648 310.392 15.7849 310.033 16.1715C308.179 18.0493 305.356 17.1656 303.226 16.3372C301.067 15.5087 298.854 14.6251 296.557 15.4811C295.118 16.0334 294.149 16.42 292.6 15.8953C291.548 15.5364 290.58 14.9565 289.501 14.6527C287.868 14.1556 286.346 14.4318 284.852 15.1774C283.136 16.0334 281.642 17.3865 279.843 18.1045C277.464 19.0434 275.61 17.8007 273.451 16.8895C271.874 16.2267 270.38 16.1163 268.803 16.8066C266.893 17.6627 265.039 19.5404 262.798 18.7396C261.608 18.3254 260.667 17.3589 259.588 16.7514C258.675 16.2543 257.679 15.8953 256.655 15.702C254.69 15.3431 252.781 15.6744 251.231 16.9723C250.844 17.3865 251.453 17.9664 251.84 17.6074Z" fill="#E8E8E8"/>
<path d="M261.802 36.468C262.328 36.468 262.328 35.6395 261.802 35.6395C261.276 35.6395 261.276 36.468 261.802 36.468Z" fill="#E8E8E8"/>
<path d="M267.336 39.478C268.637 37.1307 271.708 38.2629 273.617 39.0361C275.527 39.8093 277.242 40.2788 279.262 39.5884C280.923 39.0085 282.417 37.9039 284.132 37.5173C286.512 36.9651 287.868 38.9809 290.026 39.4504C293.402 40.1959 296.806 36.4404 299.988 38.0144C300.874 38.4562 301.482 39.0361 302.534 38.9533C303.502 38.8981 304.388 38.4286 305.329 38.2077C307.957 37.6002 310.697 38.0696 313.049 39.3675C313.519 39.616 313.934 38.8981 313.464 38.6495C311.97 37.8211 310.365 37.324 308.677 37.1584C307.819 37.0755 306.934 37.1031 306.076 37.2412C305.052 37.3793 304.111 37.8211 303.115 38.0144C301.759 38.2629 301.178 37.6002 300.071 37.1307C299.518 36.9098 298.909 36.7994 298.328 36.827C296.944 36.8822 295.616 37.4621 294.343 37.9316C292.711 38.5391 290.967 39.119 289.307 38.2905C287.896 37.6002 286.789 36.5508 285.129 36.5508C281.697 36.5785 279.29 39.8646 275.665 38.8705C272.981 38.1249 268.664 35.5015 266.672 39.0361C266.368 39.5332 267.087 39.9474 267.336 39.478Z" fill="#E8E8E8"/>
<path d="M240.495 72.5323C242.46 70.9859 244.701 71.0688 246.859 72.0629C248.049 72.6152 249.322 73.1399 250.567 72.3943C251.287 71.9524 251.757 71.2621 252.615 71.0136C253.528 70.7374 254.497 70.9307 255.382 71.1516C256.959 71.5382 258.481 72.2286 260.114 72.339C262.051 72.4771 263.822 71.6487 265.704 71.4554C267.724 71.2621 269.135 72.4771 271.016 72.7532C272.843 73.0018 274.254 71.5382 276.08 71.8144C278.294 72.1457 280.48 72.8913 282.666 73.4436C283.192 73.5817 283.413 72.7809 282.887 72.6428C280.591 72.0629 278.211 71.1792 275.859 70.9307C273.867 70.7098 272.428 72.339 270.435 71.7315C268.581 71.1792 267.253 70.3784 265.261 70.6546C263.13 70.9583 261.193 71.7867 259.007 71.3173C257.319 70.9583 255.687 70.1575 253.943 70.0471C253.307 70.0194 252.643 70.0747 252.034 70.3232C251.259 70.627 250.844 71.2621 250.125 71.6763C248.464 72.6428 246.223 70.5993 244.452 70.4613C242.764 70.3232 241.215 70.9031 239.886 71.9248C239.471 72.2838 240.08 72.8637 240.495 72.5323Z" fill="#E8E8E8"/>
<path d="M81.8561 12.2779C82.3819 12.2779 82.3819 11.4495 81.8561 11.4495C81.3303 11.4495 81.3303 12.2779 81.8561 12.2779Z" fill="#E8E8E8"/>
<path d="M84.2911 12.913C84.7892 10.4553 88.0544 12.0293 89.2442 12.7749C90.6001 13.6309 92.039 14.4041 93.699 13.9347C95.498 13.41 96.715 11.8636 98.708 11.7532C100.589 11.6703 102.416 12.5264 104.187 13.0786C105.709 13.5481 107.314 13.8795 108.891 13.4929C110.745 13.051 112.322 11.7532 114.204 11.4218C117.912 10.7866 121.26 13.7966 125.023 12.6368C125.521 12.4711 125.327 11.6703 124.802 11.836C120.872 13.0786 117.137 9.5992 113.152 10.8419C111.104 11.477 109.389 12.913 107.147 12.8301C105.072 12.7473 103.191 11.7532 101.226 11.2561C99.676 10.8695 98.099 10.759 96.605 11.4494C95.747 11.836 95 12.4711 94.142 12.8853C92.731 13.5481 91.541 13.1615 90.2681 12.4435C88.8845 11.6427 87.6946 10.7038 86.0067 10.8419C84.8168 10.9247 83.7653 11.5322 83.5439 12.7473C83.4056 13.2167 84.2081 13.4376 84.2911 12.913Z" fill="#E8E8E8"/>
<path d="M86.8093 174.153C90.1021 172.773 93.423 175.23 96.743 175.396C98.459 175.479 100.119 175.065 101.807 174.733C103.938 174.319 105.764 174.291 107.812 175.147C109.057 175.672 110.191 176.003 111.464 175.506C112.184 175.23 112.793 174.761 113.512 174.512C114.314 174.236 115.145 174.181 116.002 174.181C118.963 174.236 121.924 175.258 124.746 173.932C125.217 173.711 124.802 172.994 124.331 173.214C121.315 174.623 117.967 173.076 114.785 173.408C113.263 173.573 112.267 174.457 110.856 174.871C109.168 175.368 107.507 173.932 105.847 173.684C102.277 173.132 98.902 175.12 95.304 174.402C92.427 173.822 89.521 172.137 86.5879 173.38C86.1175 173.573 86.3389 174.374 86.8093 174.153Z" fill="#E8E8E8"/>
<path d="M26.9841 133.477C29.3987 133.477 31.3562 131.524 31.3562 129.114C31.3562 126.705 29.3987 124.751 26.9841 124.751C24.5695 124.751 22.6121 126.705 22.6121 129.114C22.6121 131.524 24.5695 133.477 26.9841 133.477Z" fill="#006400"/>
<path d="M281.476 103.488C283.172 103.488 284.548 102.116 284.548 100.423C284.548 98.73 283.172 97.358 281.476 97.358C279.78 97.358 278.405 98.73 278.405 100.423C278.405 102.116 279.78 103.488 281.476 103.488Z" fill="#006400"/>
<path d="M153.884 193.069C155.443 193.069 156.707 191.808 156.707 190.252C156.707 188.697 155.443 187.436 153.884 187.436C152.325 187.436 151.062 188.697 151.062 190.252C151.062 191.808 152.325 193.069 153.884 193.069Z" fill="#006400"/>
<path d="M23.7742 33.0991C25.5622 33.0991 27.0117 31.6526 27.0117 29.8682C27.0117 28.0838 25.5622 26.6373 23.7742 26.6373C21.9861 26.6373 20.5366 28.0838 20.5366 29.8682C20.5366 31.6526 21.9861 33.0991 23.7742 33.0991Z" fill="#006400"/>
<path d="M135.4 146.456C136.424 146.456 137.254 145.628 137.254 144.606C137.254 143.584 136.424 142.756 135.4 142.756C134.376 142.756 133.546 143.584 133.546 144.606C133.546 145.628 134.376 146.456 135.4 146.456Z" fill="#006400"/>
<path d="M310.392 162.196C311.951 162.196 313.215 160.935 313.215 159.38C313.215 157.824 311.951 156.563 310.392 156.563C308.834 156.563 307.57 157.824 307.57 159.38C307.57 160.935 308.834 162.196 310.392 162.196Z" fill="#006400"/>
<path d="M2.7441 208.754C3.9056 208.754 4.8471 207.814 4.8471 206.655C4.8471 205.496 3.9056 204.557 2.7441 204.557C1.5827 204.557 0.641113 205.496 0.641113 206.655C0.641113 207.814 1.5827 208.754 2.7441 208.754Z" fill="#006400"/>
<path d="M88.7461 45.6636C86.3387 50.5514 83.9036 55.4391 81.4962 60.3269C91.458 73.6646 101.419 86.9747 111.381 100.312C113.955 96.419 116.5 92.442 119.074 88.4383C125.134 78.9389 130.917 69.5501 136.451 60.244C134.57 55.4667 132.66 50.6618 130.779 45.8846C129.561 45.2494 128.344 44.6419 127.126 44.0068C115.338 44.0344 103.55 44.062 91.79 44.0896C90.7384 44.6419 89.7422 45.1666 88.7461 45.6636Z" fill="white"/>
<path d="M81.8283 60.5478C83.9313 55.9362 86.0897 51.3522 88.3034 46.7959C88.5247 46.3264 87.8329 45.8846 87.5839 46.3816C85.3702 50.938 83.2118 55.522 81.1088 60.1336C80.8874 60.603 81.6069 61.0449 81.8283 60.5478Z" fill="#006400"/>
<path d="M81.2748 61.0448C91.015 74.3826 100.949 87.5546 111.077 100.616C111.409 101.03 111.99 100.451 111.658 100.036C101.585 87.03 91.707 73.9131 81.9943 60.6306C81.6899 60.2164 80.9705 60.6306 81.2748 61.0448Z" fill="#006400"/>
<path d="M88.4971 46.3264C89.6592 45.7189 90.7938 45.0837 91.956 44.4762C92.426 44.2277 92.011 43.5097 91.541 43.7583C90.3787 44.3658 89.2442 45.0009 88.082 45.6084C87.5839 45.8846 88.0266 46.5749 88.4971 46.3264Z" fill="#006400"/>
<path d="M92.648 44.5314C101.281 44.5314 109.942 44.5314 118.576 44.5314C119.101 44.5314 119.101 43.703 118.576 43.703C109.942 43.703 101.281 43.703 92.648 43.703C92.122 43.703 92.122 44.5314 92.648 44.5314Z" fill="#006400"/>
<path d="M136.839 60.1611C135.095 55.5496 133.297 50.9932 131.443 46.4092C131.249 45.9122 130.447 46.1331 130.64 46.6301C132.494 51.1865 134.293 55.7705 136.036 60.3821C136.23 60.8791 137.032 60.6582 136.839 60.1611Z" fill="#006400"/>
<path d="M135.925 60.5754C127.818 73.8303 119.544 87.0024 111.104 100.064C110.8 100.506 111.519 100.92 111.824 100.478C120.264 87.4166 128.537 74.2721 136.645 60.9896C136.922 60.5478 136.202 60.106 135.925 60.5754Z" fill="#006400"/>
<path d="M130.945 45.5533C129.976 44.9457 129.008 44.3106 128.039 43.7031C127.596 43.4269 127.181 44.1173 127.624 44.4211C128.593 45.0286 129.561 45.6637 130.53 46.2712C131 46.575 131.415 45.857 130.945 45.5533Z" fill="#006400"/>
<path d="M127.098 43.6202C119.876 43.6202 112.654 43.6202 105.459 43.6202C104.934 43.6202 104.934 44.4487 105.459 44.4487C112.682 44.4487 119.904 44.4487 127.098 44.4487C127.624 44.4487 127.624 43.6202 127.098 43.6202Z" fill="#006400"/>
<path d="M82.1605 60.962C87.1136 58.8357 92.067 56.7094 97.02 54.5831C97.518 54.3622 97.075 53.6718 96.605 53.8651C91.652 55.9914 86.6985 58.1177 81.7454 60.244C81.275 60.465 81.69 61.1829 82.1605 60.962Z" fill="#006400"/>
<path d="M88.6354 46.0779C91.679 46.5473 94.668 47.2101 97.628 48.0385C98.154 48.1766 98.376 47.3758 97.85 47.2377C94.889 46.3816 91.901 45.7465 88.8567 45.2771C88.331 45.1942 88.0819 45.995 88.6354 46.0779Z" fill="#006400"/>
<path d="M97.407 47.9005C98.071 49.9716 98.652 52.0426 99.15 54.1689C99.261 54.6936 100.064 54.4727 99.953 53.948C99.455 51.8217 98.874 49.7506 98.21 47.6796C98.044 47.1825 97.241 47.3758 97.407 47.9005Z" fill="#006400"/>
<path d="M98.68 47.9833C106.096 47.9833 113.484 47.9833 120.9 47.9833C121.426 47.9833 121.426 47.1548 120.9 47.1548C113.484 47.1548 106.096 47.1548 98.68 47.1548C98.154 47.1548 98.154 47.9833 98.68 47.9833Z" fill="#006400"/>
<path d="M120.54 48.149C120.264 49.6678 119.987 51.2142 119.71 52.733C119.627 53.2577 120.43 53.4786 120.513 52.9539C120.789 51.4351 121.066 49.8887 121.343 48.3699C121.426 47.8452 120.623 47.6243 120.54 48.149Z" fill="#006400"/>
<path d="M99.593 54.2241C106.068 54.2241 112.543 54.2241 119.046 54.2241C119.572 54.2241 119.572 53.3956 119.046 53.3956C112.571 53.3956 106.096 53.3956 99.593 53.3956C99.067 53.3956 99.067 54.2241 99.593 54.2241Z" fill="#006400"/>
<path d="M121.703 47.9833C124.719 47.3482 127.707 46.713 130.723 46.0779C131.249 45.9675 131.028 45.1666 130.502 45.2771C127.486 45.9122 124.497 46.5474 121.481 47.1825C120.955 47.2929 121.177 48.0938 121.703 47.9833Z" fill="#006400"/>
<path d="M120.319 53.9756C123.114 54.4174 125.715 55.9914 128.261 57.1788C130.972 58.4491 133.656 59.7194 136.368 60.9896C136.839 61.2105 137.281 60.4926 136.783 60.2716C133.906 58.9185 131.055 57.5931 128.178 56.24C125.743 55.0802 123.224 53.6166 120.54 53.1748C120.015 53.0919 119.793 53.8927 120.319 53.9756Z" fill="#006400"/>
<path d="M99.842 55.4944C103.44 70.2957 107.009 85.1246 110.606 99.926C110.745 100.451 111.519 100.23 111.409 99.705C107.812 84.9037 104.242 70.0748 100.645 55.2735C100.506 54.7488 99.704 54.9697 99.842 55.4944Z" fill="#006400"/>
<path d="M119.157 56.4885C115.781 70.7375 112.986 85.1522 110.828 99.65C110.745 100.174 111.547 100.395 111.63 99.871C113.788 85.3731 116.583 70.986 119.959 56.7094C120.098 56.1847 119.295 55.9638 119.157 56.4885Z" fill="#006400"/>
<path d="M119.433 28.8466C120.679 25.6709 121.37 22.3296 121.481 18.9054C121.509 18.3807 120.679 18.3807 120.651 18.9054C120.54 22.2467 119.849 25.5052 118.631 28.6257C118.437 29.1227 119.24 29.316 119.433 28.8466Z" fill="#006400"/>
<path d="M125.106 29.3988C127.762 26.3888 130.751 23.7378 134.099 21.5011C134.542 21.1973 134.127 20.4794 133.684 20.7831C130.281 23.0475 127.209 25.7537 124.525 28.8189C124.165 29.2055 124.746 29.7854 125.106 29.3988Z" fill="#006400"/>
<path d="M130.557 34.5075C133.989 33.4858 137.53 33.0992 141.1 33.3753C141.626 33.4029 141.626 32.5745 141.1 32.5469C137.447 32.2707 133.85 32.6573 130.336 33.7067C129.838 33.8724 130.032 34.6732 130.557 34.5075Z" fill="#006400"/>
<path d="M72.2541 15.1498C72.5861 20.6174 69.5146 25.8366 64.5891 28.2114C64.3124 28.3495 64.3401 28.7637 64.5891 28.9294C69.0995 31.6356 71.1749 36.6062 72.3648 41.4939C72.5031 42.0186 73.2779 41.7977 73.1672 41.273C71.922 36.1643 69.7083 31.0004 65.0042 28.2114C65.0042 28.4599 65.0042 28.6808 65.0042 28.9294C70.1787 26.4165 73.4439 20.866 73.0842 15.1498C73.0565 14.6251 72.2264 14.6251 72.2541 15.1498Z" fill="#E8E8E8"/>
<path d="M72.5584 15.1498C72.1987 20.8936 75.4639 26.4441 80.6384 28.9294C80.6384 28.6808 80.6384 28.4599 80.6384 28.2114C75.9066 31.028 73.6929 36.1919 72.4477 41.3282C72.3094 41.8529 73.1118 42.0738 73.2502 41.5491C74.4401 36.6338 76.5154 31.6356 81.0535 28.9294C81.3025 28.7913 81.3302 28.3495 81.0535 28.2114C76.128 25.8365 73.0288 20.6174 73.3609 15.1498C73.4162 14.6251 72.5861 14.6251 72.5584 15.1498Z" fill="#E8E8E8"/>
<path d="M207.29 222.451C208.258 222.037 209.586 221.429 211.108 220.573C213.654 219.165 214.927 218.447 215.702 217.315C216.698 215.823 216.31 215.023 217.611 213.531C217.805 213.283 218.718 212.316 219.908 211.792C221.955 210.936 223.865 211.957 227.047 213.09C229.98 214.139 232.277 214.636 236.87 215.658C238.696 216.072 240.91 216.486 244.12 217.48C245.033 217.756 245.753 218.005 246.251 218.171C246.306 218.751 246.334 220.242 245.365 221.595C244.922 222.202 244.314 222.699 243.345 223.141C241.104 224.191 238.973 223.997 237.174 223.914C233.3 223.749 234.905 224.301 225.774 224.467C223.782 224.494 222.149 224.494 221.014 224.494C219.603 225.461 218.192 226.455 216.753 227.477C214.318 229.244 211.994 231.011 209.78 232.751C208.95 229.327 208.12 225.875 207.29 222.451Z" fill="#006400"/>
<path d="M195.751 187.105C193.758 188.154 193.537 188.54 186.121 194.837C174.555 204.64 173.282 205.164 162.794 214.305C152.75 223.031 150.868 225.212 148.959 228.084C144.199 235.347 143.148 241.422 142.843 244.377C142.428 248.353 141.875 253.876 145.389 258.239C147.603 260.973 150.481 262.105 151.449 262.464C154.355 263.569 156.734 263.431 161.023 263.127C166.724 262.713 171.068 261.608 172.784 261.139C174.665 260.614 179.037 259.316 184.516 256.61C189.663 254.069 191.877 252.192 198.905 247.47C202.032 245.371 206.653 242.306 212.464 238.771C212.824 236.01 212.52 233.856 212.215 232.503C211.496 229.299 210.029 227.09 208.397 224.66C207.068 222.672 205.795 221.153 204.91 220.159C206.985 218.585 209.697 216.321 212.547 213.283C214.457 211.239 217.473 207.981 219.991 203.397C223.09 197.764 226.189 192.075 224.197 188.154C221.07 181.996 206.183 181.72 195.751 187.105Z" fill="white"/>
<path opacity="0.18" d="M220.544 190.115C218.967 193.76 216.366 198.923 212.215 204.446C206.183 212.427 200.095 216.845 190.908 223.39C164.925 241.891 157.952 246.116 158.727 247.884C159.778 250.286 174.416 245.978 176.547 245.343C192.098 240.759 203.554 233.69 210.721 228.526C208.895 225.737 207.068 222.948 205.242 220.187C207.483 218.585 210.583 216.044 213.488 212.261C215.093 210.19 217.528 206.987 219.105 202.154C220.71 197.349 220.766 193.069 220.544 190.115Z" fill="#9B9797"/>
<path d="M195.64 187.077C185.789 194.395 176.187 202.072 166.945 210.107C162.518 213.946 158.09 217.784 153.94 221.899C150.259 225.544 146.828 229.576 144.753 234.38C142.594 239.351 141.986 245.095 142.511 250.48C142.954 254.926 144.587 259.399 148.654 261.719C152.916 264.121 158.284 263.873 162.988 263.376C168.771 262.796 174.472 261.387 179.867 259.206C191.904 254.318 201.34 245.178 212.713 239.13C213.184 238.882 212.769 238.164 212.298 238.412C202.807 243.466 194.727 250.756 185.208 255.809C180.227 258.46 174.859 260.393 169.325 261.581C164.206 262.658 158.45 263.486 153.248 262.492C150.813 262.022 148.461 261.028 146.717 259.206C145.029 257.411 144.116 255.064 143.646 252.661C142.622 247.442 143.092 241.533 144.808 236.507C146.524 231.481 149.872 227.256 153.524 223.5C157.315 219.607 161.466 216.017 165.534 212.455C175.357 203.839 185.54 195.61 196.055 187.823C196.47 187.491 196.083 186.773 195.64 187.077Z" fill="#006400"/>
<path d="M168.522 243.686C177.598 240.179 185.817 234.933 193.62 229.189C197.466 226.372 201.257 223.445 205.021 220.518C208.729 217.618 212.27 214.553 215.148 210.825C215.48 210.411 214.761 209.997 214.429 210.411C211.496 214.222 207.815 217.287 204.052 220.242C200.344 223.141 196.609 226.013 192.79 228.802C185.153 234.38 177.156 239.517 168.301 242.913C167.803 243.079 168.024 243.88 168.522 243.686Z" fill="#006400"/>
<path d="M204.606 220.435C209.946 224.909 212.769 231.84 212.021 238.771C211.966 239.296 212.796 239.296 212.852 238.771C213.599 231.647 210.666 224.467 205.187 219.855C204.799 219.496 204.218 220.076 204.606 220.435Z" fill="#006400"/>
<path d="M211.966 231.067C213.543 230.597 214.927 229.272 216.255 228.333C217.915 227.173 219.548 226.013 221.208 224.853C221.651 224.55 221.236 223.832 220.793 224.135C219.299 225.185 217.777 226.262 216.283 227.311C214.899 228.278 213.377 229.769 211.745 230.266C211.219 230.404 211.44 231.205 211.966 231.067Z" fill="#006400"/>
<path d="M207.4 222.837C210.527 221.54 213.405 219.772 216.006 217.591C216.421 217.232 215.812 216.652 215.425 217.011C212.962 219.11 210.195 220.794 207.207 222.037C206.708 222.258 206.93 223.058 207.4 222.837Z" fill="#006400"/>
<path d="M215.702 217.232C216.227 217.232 216.227 216.403 215.702 216.403C215.176 216.403 215.176 217.232 215.702 217.232Z" fill="#006400"/>
<path d="M216.698 216.238C217.168 215.133 217.666 213.918 218.552 213.062C219.742 211.902 221.181 212.068 222.702 212.399C225.525 213.034 228.292 213.918 231.059 214.719C233.633 215.437 236.206 216.072 238.862 216.376C240.412 216.541 241.713 216.735 243.096 217.425C244.12 217.922 245.005 218.419 246.14 218.53C246.666 218.585 246.666 217.757 246.14 217.701C244.618 217.563 243.428 216.514 241.989 216.044C240.55 215.575 238.945 215.603 237.451 215.354C234.186 214.829 231.004 213.835 227.849 212.896C226.3 212.455 224.75 212.013 223.173 211.654C222.011 211.405 220.793 211.101 219.631 211.46C217.611 212.068 216.642 214.222 215.895 216.017C215.702 216.514 216.504 216.735 216.698 216.238Z" fill="#006400"/>
<path d="M221.098 225.461C227.019 224.577 232.885 224.439 238.862 224.329C240.938 224.301 243.151 224.053 244.812 222.699C246.223 221.54 247.025 219.855 246.638 218.06C246.527 217.536 245.725 217.756 245.836 218.281C246.361 220.794 244.092 222.644 241.851 223.197C239.554 223.749 237.064 223.473 234.712 223.528C230.063 223.611 225.47 223.997 220.876 224.688C220.35 224.743 220.599 225.544 221.098 225.461Z" fill="#006400"/>
<path d="M242.1 219.965C244.148 218.502 246.223 217.038 248.271 215.575C248.409 214.636 248.852 212.592 250.54 210.853C251.038 210.328 252.2 209.113 253.943 208.782C255.77 208.423 257.181 209.251 258.758 209.969C261.304 211.129 263.766 211.571 268.637 212.51C272.483 213.228 274.42 213.587 277.187 213.448C280.95 213.228 283.634 212.233 285.239 213.807C285.405 213.973 286.097 214.719 286.042 215.63C285.959 216.79 284.714 217.535 283.717 218.115C279.373 220.601 276.938 221.319 276.938 221.319C270.795 223.113 267.696 224.025 265.039 224.246C262.881 224.411 259.809 224.494 256.102 223.914C255.022 227.615 251.757 229.989 248.686 229.796C244.729 229.548 241.076 225.102 242.1 219.965Z" fill="#006400"/>
<path d="M202.364 195.554C202.973 193.704 204.107 191.357 206.238 190.584C207.622 190.087 208.894 190.418 209.31 190.529C211.883 191.164 217.168 190.252 227.711 188.457C232.941 187.574 239.554 186.276 247.164 184.343C247.191 185.751 247.164 187.601 247.081 189.755C246.887 194.588 246.389 198.233 246.278 199.089C245.808 202.513 244.978 208.202 242.46 215.105C241.823 216.873 241.187 218.336 240.744 219.33C241.823 219.827 242.985 220.49 244.12 221.429C248.796 225.157 250.152 230.431 250.595 232.668C249.931 233.469 248.935 234.656 247.662 236.009C242.515 241.477 237.756 244.542 228.679 250.148C223.09 253.6 218.994 256.113 212.436 259.979C204.467 264.673 198.02 268.318 189.995 270.61C188.003 271.19 184.848 271.963 180.864 271.549C178.927 271.356 175.44 270.997 172.092 268.567C167.803 265.474 166.447 260.945 165.893 258.957C164.648 254.511 165.119 250.341 166.281 246.006C167.083 242.968 169.989 232.889 180.089 221.539C182.109 219.275 187.864 214.166 199.32 203.949C202.087 201.491 204.356 199.476 205.878 198.15C204.716 197.266 203.554 196.41 202.364 195.554Z" fill="white"/>
<path opacity="0.18" d="M239.997 187.905C239.36 190.335 238.337 193.842 236.787 197.957C222.647 235.347 191.046 251.501 193.62 255.533C195.502 258.515 213.543 251.087 226.549 243.272C236.289 237.418 243.539 231.149 248.381 226.427C247.606 225.295 246.417 223.749 244.618 222.285C242.875 220.877 241.214 220.021 239.969 219.496C240.827 218.253 241.962 216.376 242.93 213.973C243.566 212.427 244.12 210.77 244.839 207.401C246.002 202.071 246.472 197.846 246.61 196.521C246.942 193.345 247.247 189.231 247.191 184.37C244.784 185.53 242.404 186.718 239.997 187.905Z" fill="#9B9797"/>
<path d="M246.776 184.343C246.804 189.562 246.472 194.781 245.753 199.973C245.088 204.639 244.258 209.444 242.543 213.863C240.689 218.64 237.506 222.119 233.66 225.405C229.731 228.747 225.774 232.033 221.817 235.319C217.279 239.102 212.713 242.858 208.175 246.641C207.76 246.972 208.341 247.552 208.756 247.221C217.085 240.317 225.414 233.441 233.688 226.455C237.34 223.362 240.661 220.159 242.653 215.713C244.59 211.405 245.531 206.683 246.278 202.044C247.219 196.189 247.662 190.28 247.606 184.343C247.606 183.791 246.776 183.791 246.776 184.343Z" fill="#006400"/>
<path d="M202.834 196.328C203.969 196.935 205.104 197.543 206.266 198.15C206.736 198.399 207.151 197.681 206.681 197.432C205.546 196.825 204.412 196.217 203.25 195.61C202.779 195.361 202.364 196.079 202.834 196.328Z" fill="#006400"/>
<path d="M206.266 197.819C196.415 205.827 186.066 213.752 177.847 223.473C170.764 231.84 164.925 242.444 164.953 253.683C164.953 258.626 166.309 263.79 169.961 267.297C173.614 270.831 178.899 272.212 183.88 271.963C189.967 271.66 195.751 269.257 201.174 266.606C206.985 263.762 212.492 260.393 218.026 257.052C229.426 250.148 242.155 243.714 250.706 233.193C251.038 232.779 250.457 232.199 250.125 232.613C242.958 241.45 232.885 247.11 223.283 252.909C217.998 256.113 212.768 259.371 207.373 262.409C202.087 265.391 196.581 268.235 190.742 269.92C185.263 271.494 179.148 271.825 173.973 269.092C168.993 266.496 166.447 261.47 165.921 256.002C164.897 244.957 170.459 233.966 177.183 225.571C185.568 215.105 196.525 206.766 206.874 198.371C207.262 198.067 206.681 197.487 206.266 197.819Z" fill="#006400"/>
<path d="M240.55 219.662C245.753 222.147 249.377 227.062 250.235 232.751C250.318 233.276 251.121 233.055 251.038 232.53C250.18 226.648 246.361 221.484 240.993 218.944C240.495 218.723 240.08 219.441 240.55 219.662Z" fill="#006400"/>
<path d="M242.211 220.38C243.317 219.938 244.203 219.192 245.144 218.474C246.251 217.618 247.385 216.79 248.492 215.934C248.907 215.602 248.492 214.884 248.077 215.216C247.081 215.961 246.085 216.707 245.088 217.48C244.12 218.226 243.151 219.137 241.989 219.579C241.519 219.772 241.713 220.573 242.211 220.38Z" fill="#006400"/>
<path d="M248.907 215.602C249.46 213.973 250.125 212.371 251.01 210.88C252.228 208.837 254.054 209.058 256.102 209.582C259.284 210.383 262.328 211.598 265.537 212.316C271.763 213.697 278.156 214.166 284.52 213.752C285.046 213.725 285.046 212.896 284.52 212.924C277.021 213.421 269.467 212.648 262.217 210.604C260.474 210.107 258.786 209.472 257.042 208.975C255.714 208.588 254.137 208.146 252.753 208.423C251.508 208.671 250.789 209.61 250.18 210.659C249.322 212.151 248.658 213.752 248.105 215.381C247.939 215.878 248.741 216.099 248.907 215.602Z" fill="#006400"/>
<path d="M250.097 228.94C252.172 227.366 254.22 225.792 256.295 224.218C256.71 223.887 256.295 223.169 255.88 223.5C253.805 225.074 251.757 226.648 249.682 228.222C249.267 228.553 249.682 229.271 250.097 228.94Z" fill="#006400"/>
<path d="M256.268 224.025C263.019 225.488 269.909 224.384 276.302 221.954C279.207 220.849 282.528 219.606 285.018 217.729C286.761 216.431 287.01 213.946 284.714 213.062C284.215 212.869 283.994 213.669 284.492 213.863C285.737 214.332 285.876 215.685 285.018 216.624C284.603 217.094 284.022 217.397 283.468 217.729C282.334 218.364 281.172 218.944 280.009 219.496C277.547 220.656 275.001 221.65 272.372 222.423C267.198 223.914 261.774 224.411 256.461 223.252C255.963 223.113 255.742 223.914 256.268 224.025Z" fill="#006400"/>
<path d="M184.156 104.759C188.362 101.279 194.644 97.082 203.028 94.596C206.957 93.437 211.883 92.001 218.413 92.553C228.43 93.409 235.32 98.324 237.756 100.119C241.574 102.908 244.175 105.863 245.78 107.934C246.085 127.292 246.5 146.677 247.025 166.035C247.191 172 247.357 177.992 247.551 183.957C243.622 186.387 238.115 189.12 231.142 190.722C214.816 194.45 201.23 189.479 195.723 187.077C195.695 182.189 195.391 174.844 193.897 166.035C191.462 151.565 187.671 145.738 185.291 133.284C184.101 126.85 182.967 117.185 184.156 104.759Z" fill="#006400"/>
<path d="M234.186 109.536C232.83 111.027 232.581 112.711 232.664 119.173C232.719 125.966 233.079 130.605 233.301 135.99C233.467 139.884 233.605 142.977 233.522 147.008C233.439 152.089 233.107 156.259 232.802 159.048C230.091 162.086 227.683 164.461 225.885 166.173C221.845 170.011 217.445 174.153 210.942 178.047C208.369 179.566 206.155 180.67 204.661 181.361C203.305 181.14 201.783 180.808 200.123 180.394C196.193 179.4 194.561 178.516 191.6 178.516C190.715 178.516 187.92 178.516 187.643 179.51C187.394 180.339 188.944 181.637 190.161 182.272C191.296 182.852 191.794 182.686 192.928 183.211C194.201 183.818 195.031 184.702 195.529 185.365C195.004 186.11 194.201 187.242 193.316 188.706C192.292 190.418 192.07 191.081 190.881 193.124C189.635 195.278 188.999 196.355 188.446 196.907C187.588 197.708 187.062 197.874 183.216 199.586C179.397 201.298 178.733 201.685 178.733 202.154C178.733 202.624 179.48 202.734 182.441 204.004C184.848 205.026 185.07 205.247 186.315 205.606C187.864 206.048 188.805 206.324 189.94 206.075C191.738 205.716 192.901 204.363 193.399 203.645C193.648 203.866 194.256 204.336 195.059 204.363C195.695 204.363 196.221 204.115 196.636 203.783C198.379 202.541 199.237 200.249 200.953 197.681C201.257 197.239 202.336 195.61 204.08 193.787C205.159 192.627 206.155 191.771 206.875 191.191C207.843 190.97 209.282 190.639 210.998 190.142C217.666 188.237 222.481 185.945 226.521 184.012C228.873 182.879 231.53 181.388 236.815 178.433C241.408 175.865 243.788 174.429 245.891 171.613C246.112 171.309 247.247 169.79 248.243 167.553C248.547 166.863 249.627 164.405 250.208 160.098C250.484 158.192 250.484 157.143 250.512 151.178C250.567 143.584 250.567 144.495 250.567 143.722C250.54 132.594 249.959 133.588 249.765 123.37C249.737 122.404 249.71 119.781 248.907 116.467C248.049 112.877 246.97 111.275 246.361 110.475C245.587 109.453 244.646 108.238 243.041 107.547C240.108 106.25 236.206 107.299 234.186 109.536Z" fill="white"/>
<path opacity="0.25" d="M243.068 107.52C243.733 109.701 244.535 112.849 245.088 116.66C245.753 121.272 246.002 126.353 244.507 139.635C243.262 150.736 242.653 156.287 241.048 161.478C238.752 168.879 237.091 174.264 232.028 178.516C228.762 181.25 225.193 182.52 218.026 185.033C212.768 186.883 208.258 187.988 205.159 188.678C202.945 191.661 199.652 195.444 194.976 199.034C191.323 201.85 187.809 203.783 184.904 205.109C185.319 205.385 187.034 206.49 189.359 206.186C192.07 205.827 193.537 203.894 193.786 203.535C194.312 203.922 195.087 204.336 195.944 204.198C197.715 203.922 198.656 201.409 199.127 200.276C200.15 197.929 202.198 194.698 206.791 191.164C209.835 190.363 213.958 189.148 218.745 187.325C225.414 184.757 229.897 182.272 234.712 179.593C242.432 175.285 244.175 173.518 245.448 171.806C247.773 168.686 248.741 165.482 249.156 164.074C249.903 161.561 250.042 158.744 250.318 153.249C250.512 149.162 250.512 146.014 250.512 143.639C250.512 139.552 250.429 136.515 250.346 133.892C250.235 130.081 250.014 125.607 249.46 120.25C249.045 116.356 248.741 114.81 247.856 113.07C246.5 110.309 244.48 108.542 243.068 107.52Z" fill="#9B9797"/>
<path d="M233.771 109.425C232.332 113.015 232.166 116.881 232.249 120.719C232.332 124.944 232.553 129.142 232.747 133.367C233.135 141.927 233.411 150.515 232.387 159.048C232.332 159.573 233.162 159.573 233.218 159.048C234.214 150.709 233.992 142.286 233.605 133.919C233.411 129.777 233.19 125.635 233.079 121.465C232.968 117.461 233.051 113.429 234.573 109.646C234.767 109.149 233.965 108.928 233.771 109.425Z" fill="#006400"/>
<path d="M233.992 158.33C231.447 159.739 229.399 161.782 227.434 163.908C225.304 166.2 223.173 168.437 220.793 170.481C215.923 174.706 210.444 178.185 204.578 180.891C204.08 181.112 204.522 181.83 204.993 181.609C210.638 179.013 215.923 175.7 220.655 171.696C223.007 169.735 225.165 167.581 227.241 165.344C229.399 162.997 231.557 160.622 234.38 159.076C234.878 158.772 234.463 158.054 233.992 158.33Z" fill="#006400"/>
<path d="M204.771 180.946C201.728 180.311 198.656 179.648 195.612 178.958C194.09 178.627 192.541 178.213 190.991 177.936C190.023 177.771 188.999 177.688 188.141 178.24C186.813 179.096 186.813 180.67 188.003 181.609C188.861 182.299 189.967 182.603 190.991 182.935C192.652 183.459 194.063 184.122 195.142 185.53C195.474 185.945 196.193 185.53 195.861 185.116C194.893 183.873 193.731 182.99 192.236 182.465C191.213 182.106 190.078 181.885 189.137 181.361C188.473 181.002 187.615 180.449 188.113 179.455C188.584 178.516 189.774 178.599 190.632 178.737C192.928 179.069 195.225 179.731 197.522 180.256C199.874 180.781 202.226 181.278 204.578 181.775C205.076 181.858 205.297 181.057 204.771 180.946Z" fill="#006400"/>
<path d="M194.478 185.669C193.26 187.905 192.015 190.114 190.798 192.351C190.189 193.428 189.663 194.588 188.944 195.637C188.196 196.714 187.2 197.267 186.038 197.819C183.852 198.841 181.5 199.669 179.397 200.856C178.456 201.409 177.847 202.403 178.65 203.369C179.646 204.557 181.611 204.087 182.939 203.866C184.765 203.563 186.508 202.955 188.169 202.182C191.628 200.525 194.561 197.929 196.664 194.726C196.968 194.284 196.249 193.87 195.944 194.312C194.09 197.184 191.517 199.503 188.501 201.105C187.062 201.851 185.512 202.458 183.935 202.817C183.05 203.038 182.109 203.231 181.168 203.259C180.31 203.314 180.089 203.425 179.674 202.569C179.148 202.071 179.203 201.74 179.812 201.574C180.006 201.492 180.172 201.409 180.365 201.326C182.136 200.497 183.935 199.697 185.706 198.868C187.09 198.233 188.445 197.681 189.386 196.438C190.493 194.975 191.268 193.235 192.153 191.633C193.177 189.783 194.201 187.933 195.197 186.11C195.446 185.613 194.727 185.199 194.478 185.669Z" fill="#006400"/>
<path d="M207.124 191.716C214.512 189.645 221.679 186.884 228.541 183.459C231.945 181.747 235.265 179.897 238.503 177.854C241.408 176.031 244.48 174.181 246.555 171.392C246.859 170.95 246.14 170.536 245.836 170.978C243.677 173.905 240.301 175.81 237.258 177.688C234.158 179.593 230.948 181.361 227.683 182.99C221.015 186.276 214.069 188.927 206.902 190.943C206.404 191.053 206.625 191.854 207.124 191.716Z" fill="#006400"/>
<path d="M234.324 110.171C236.621 105.67 242.515 106.691 245.42 109.895C248.907 113.761 249.073 119.422 249.46 124.337C250.291 135.079 250.457 145.904 249.793 156.646C249.46 161.865 248.686 167.388 245.199 171.53C244.867 171.944 245.448 172.524 245.78 172.11C248.907 168.354 249.986 163.605 250.429 158.855C251.01 152.78 251.01 146.622 250.955 140.519C250.899 134.14 250.595 127.734 250.014 121.382C249.571 116.605 248.713 111.331 244.756 108.155C241.38 105.449 235.736 105.532 233.577 109.757C233.356 110.226 234.075 110.64 234.324 110.171Z" fill="#006400"/>
<path d="M182.192 204.336C184.212 205.247 186.647 206.628 188.944 206.628C191.157 206.6 192.79 204.778 194.284 203.397C198.573 199.42 202.862 195.444 207.151 191.495C207.539 191.136 206.958 190.556 206.57 190.915C202.945 194.284 199.32 197.625 195.695 200.994C194.09 202.458 192.43 204.557 190.41 205.468C188.03 206.545 184.765 204.612 182.635 203.645C182.136 203.397 181.721 204.115 182.192 204.336Z" fill="#006400"/>
<path d="M193.454 203.756C194.367 205.468 196.387 204.778 197.411 203.59C199.431 201.215 201.008 198.344 202.724 195.775C203.028 195.334 202.309 194.919 202.004 195.361C200.925 196.963 199.846 198.565 198.767 200.166C198.158 201.05 195.474 205.827 194.173 203.342C193.924 202.872 193.205 203.287 193.454 203.756Z" fill="#006400"/>
<path d="M187.034 202.403C187.864 202.845 188.888 203.287 189.801 202.845C190.272 202.596 190.466 202.21 190.687 201.768C191.074 201.022 191.462 200.442 192.181 199.973C192.624 199.669 192.209 198.951 191.766 199.255C191.102 199.697 190.549 200.249 190.161 200.967C189.884 201.492 189.718 202.127 188.999 202.182C188.473 202.237 187.892 201.906 187.449 201.685C187.007 201.464 186.564 202.154 187.034 202.403Z" fill="#006400"/>
<path d="M181.362 44.6143C180.393 46.5749 179.425 49.861 179.12 50.9379C178.678 52.4844 177.681 56.1018 177.128 60.9067C176.824 63.5577 176.492 66.4572 176.768 70.2956C176.907 72.1182 177.1 74.9901 178.179 78.5523C178.899 80.9824 179.95 84.4894 182.801 88.0793C185.291 91.1997 188.141 93.16 190.41 94.348C191.849 94.375 193.592 94.293 195.529 93.934C199.016 93.271 201.728 91.9729 203.554 90.9236C203.803 92.332 204.135 93.823 204.55 95.369C205.408 98.573 206.459 101.389 207.511 103.819C208.645 103.626 210.001 103.295 211.44 102.632C216.006 100.506 218.192 96.585 218.967 94.955C218.552 93.354 218.22 91.6139 217.915 89.819C216.864 83.1087 217.141 77.1164 217.805 72.2562C218.386 72.4495 219.327 72.6981 220.489 72.6428C222.758 72.5048 224.307 71.2621 225.082 70.5994C225.746 70.0471 228.762 67.3685 228.652 63.392C228.624 62.4531 228.569 60.1611 226.936 58.9185C225.414 57.7863 223.367 58.2005 221.872 58.5043C220.157 58.8633 218.884 59.5812 218.109 60.0783C218.69 58.1729 219.908 53.2852 218.109 47.5966C217.722 46.3816 215.148 38.6495 207.566 35.3082C197.273 30.7242 184.904 37.5174 181.362 44.6143Z" fill="white"/>
<path opacity="0.24" d="M212.63 44.78C212.851 47.3482 213.018 51.0761 212.63 55.4944C211.44 68.8874 206.127 78.1934 204.744 80.513C202.641 84.0477 199.044 89.1839 193.288 94.237C195.004 94.016 196.968 93.63 199.071 92.884C204.855 90.8408 208.728 87.3338 210.831 85.0418C210.998 88.107 211.523 91.8349 212.768 95.922C213.322 97.662 213.931 99.263 214.567 100.699C216.034 98.794 217.473 96.888 218.939 94.955C218.635 93.16 218.358 91.255 218.164 89.2944C217.528 83.3573 217.528 77.8897 217.86 73.0295C219.105 73.0571 220.904 72.9467 222.813 72.2011C231.17 68.8874 235.929 55.7153 231.419 48.5356C231.225 48.2318 230.229 46.6854 228.181 45.3047C221.845 41.0521 213.792 44.283 212.63 44.78Z" fill="#9B9797"/>
<path d="M179.342 50.1096C178.788 48.2042 178.013 44.5591 178.816 40.0856C179.065 38.7048 179.923 34.2589 182.967 30.7519C187.422 25.6432 193.011 26.6097 200.261 24.014C204.854 22.3848 211.163 18.9606 217.556 10.8972C216.974 13.8795 216.393 16.8895 215.812 19.8718C216.808 20.148 220.157 20.866 223.588 19.1815C229.288 16.3924 229.786 9.6545 229.814 9.3508C230.506 10.8972 231.751 14.3214 231.197 18.6844C230.81 21.6668 229.731 23.9035 228.956 25.2566C229.288 25.6156 231.059 27.4382 233.107 27.162C235.597 26.8307 237.922 23.4341 237.257 19.0434C237.811 20.6727 238.475 23.3513 238.309 26.6374C238.088 30.6414 236.759 33.6514 235.874 35.2807C236.095 35.474 237.506 36.7442 239.499 36.4957C241.242 36.2748 242.736 35.0045 243.317 33.2096C243.179 35.0597 242.847 37.7383 241.768 40.8035C240.301 44.9457 239.084 45.2771 238.475 48.2318C237.506 52.871 239.997 54.445 239.333 58.5872C238.779 62.0666 236.51 64.2481 233.633 67.0372C228.403 72.0906 222.398 74.8244 217.362 76.3432C217.583 74.7968 217.832 73.2504 218.054 71.704C218.69 72.0906 219.797 72.6153 221.18 72.5601C224.003 72.4496 225.774 69.9367 226.715 68.5836C227.794 67.0648 229.593 64.4691 228.624 61.68C227.822 59.4156 225.691 58.4767 225.497 58.3939C223.007 57.3445 219.797 58.2834 217.722 60.824C216.559 56.2676 215.425 51.7388 214.263 47.1825C210.333 44.6972 206.432 42.2395 202.502 39.7542C200.565 39.3952 195.28 38.6772 189.359 41.3006C183.382 43.9516 180.338 48.4527 179.342 50.1096Z" fill="#006400"/>
<path d="M178.927 49.9992C176.575 58.7805 175.163 68.1142 177.322 77.0889C179.093 84.3791 183.575 92.691 191.213 95.066C191.711 95.232 191.932 94.431 191.434 94.265C183.769 91.8902 179.48 83.2469 177.903 75.9567C176.049 67.3962 177.46 58.5596 179.701 50.2201C179.867 49.723 179.065 49.5021 178.927 49.9992Z" fill="#006400"/>
<path d="M191.821 94.928C204.578 93.63 215.231 84.4342 218.22 71.9525C218.33 71.4278 217.556 71.2069 217.417 71.7316C214.512 83.7991 204.246 92.829 191.821 94.099C191.296 94.154 191.268 94.983 191.821 94.928Z" fill="#006400"/>
<path d="M217.5 72.1734C223.201 75.6528 228.762 68.3626 229.122 63.254C229.316 60.5478 228.071 58.4767 225.387 57.7035C222.896 56.9855 220.184 57.7311 218.413 59.6089C218.054 59.9955 218.635 60.5754 218.995 60.1888C220.461 58.6147 222.675 57.9244 224.805 58.3938C225.912 58.6424 227.13 59.2499 227.766 60.244C228.458 61.321 228.375 62.8121 228.209 63.9995C227.545 68.2798 222.785 74.4102 217.915 71.4278C217.473 71.1793 217.03 71.8973 217.5 72.1734Z" fill="#006400"/>
<path d="M217.445 72.1182C216.366 79.7674 216.753 87.527 218.579 95.038C218.718 95.563 219.52 95.342 219.382 94.817C217.583 87.4442 217.196 79.8226 218.247 72.3391C218.303 71.8144 217.5 71.5935 217.445 72.1182Z" fill="#006400"/>
<path d="M203.139 91.034C203.997 95.508 205.325 99.843 207.151 104.04C207.373 104.537 208.092 104.096 207.871 103.626C206.072 99.512 204.772 95.231 203.941 90.8131C203.831 90.2885 203.056 90.5094 203.139 91.034Z" fill="#006400"/>
<path d="M207.732 104.151C213.073 103.295 217.583 99.622 219.603 94.624C219.797 94.127 218.995 93.906 218.801 94.403C216.892 99.153 212.547 102.549 207.511 103.35C206.985 103.433 207.207 104.234 207.732 104.151Z" fill="#006400"/>
<path d="M203.803 92C204.938 92.056 205.712 91.2825 206.57 90.6197C207.705 89.7361 208.784 88.7972 209.78 87.8031C211.634 85.9529 213.128 83.8266 214.097 81.3965C214.29 80.8995 213.488 80.6786 213.294 81.1756C212.436 83.3295 211.108 85.2349 209.503 86.8918C208.784 87.665 208.009 88.3554 207.207 89.0457C206.321 89.7913 205.048 91.2273 203.803 91.172C203.277 91.1444 203.277 91.9728 203.803 92Z" fill="#006400"/>
<path d="M203.858 91.5589C206.21 90.0401 208.396 88.3004 210.444 86.395C210.831 86.036 210.25 85.4285 209.863 85.8151C207.871 87.6929 205.74 89.3774 203.443 90.8685C202.973 91.1171 203.416 91.835 203.858 91.5589Z" fill="#006400"/>
<path d="M187.588 51.6008C186.038 58.6424 185.153 65.7946 184.959 73.0019C184.959 73.4161 185.512 73.5542 185.734 73.2228C186.813 71.5107 187.892 69.771 188.971 68.0589C189.248 67.6171 188.529 67.1753 188.252 67.6447C187.173 69.3568 186.094 71.0965 185.014 72.8086C185.263 72.8915 185.54 72.9467 185.789 73.0295C185.983 65.905 186.868 58.8081 188.39 51.8493C188.501 51.297 187.698 51.0761 187.588 51.6008Z" fill="#006400"/>
<path d="M188.695 83.3849C188.03 82.1423 187.588 80.8168 187.477 79.4084C187.394 78.4143 187.615 74.3826 189.497 75.9842C190.493 76.8403 190.355 78.7181 190.382 79.9607C190.382 80.5406 190.382 81.1481 190.327 81.728C190.299 82.1423 190.244 82.5565 190.161 82.9431C189.442 83.4401 188.888 83.4125 188.529 82.8879C188.169 82.5013 187.56 83.0812 187.947 83.4678C189.137 84.6828 190.687 84.738 191.019 82.8326C191.268 81.4795 191.268 80.0436 191.157 78.6905C191.074 77.6135 191.074 76.0671 190.272 75.2387C189.082 74.0236 187.394 75.1558 186.924 76.4537C186.066 78.7733 186.896 81.7004 188.003 83.7991C188.224 84.2686 188.944 83.8544 188.695 83.3849Z" fill="#006400"/>
<path d="M194.422 58.5319C195.253 62.4256 200.372 62.7293 201.894 59.1395C202.087 58.6424 201.285 58.4215 201.091 58.9185C199.846 61.8457 195.861 61.2934 195.225 58.311C195.114 57.814 194.312 58.0073 194.422 58.5319Z" fill="#006400"/>
<path d="M192.79 48.9498C193.841 46.6025 196.553 45.4703 199.044 45.995C201.617 46.5473 203.582 48.5355 204.855 50.7171C205.131 51.1865 205.851 50.7723 205.574 50.3029C204.107 47.79 201.783 45.5532 198.795 45.1114C196.11 44.7248 193.233 45.995 192.07 48.5079C191.849 49.0326 192.569 49.4468 192.79 48.9498Z" fill="#006400"/>
<path d="M176.575 49.8611C177.322 48.3147 178.622 46.6302 180.532 46.6578C182.358 46.6855 183.686 48.2871 184.599 49.6954C184.876 50.1373 185.595 49.723 185.319 49.2812C184.267 47.5967 182.69 45.857 180.532 45.8294C178.318 45.8018 176.768 47.6244 175.883 49.4469C175.634 49.9163 176.353 50.3306 176.575 49.8611Z" fill="#006400"/>
<path d="M181.472 62.3704C181.961 62.3704 182.358 60.553 182.358 58.3111C182.358 56.0692 181.961 54.2518 181.472 54.2518C180.983 54.2518 180.587 56.0692 180.587 58.3111C180.587 60.553 180.983 62.3704 181.472 62.3704Z" fill="#006400"/>
<path d="M184.018 106.056C183.935 107.078 183.824 108.486 183.769 110.116C183.52 115.694 183.741 119.919 183.824 121.051C184.046 124.724 184.544 129.529 185.706 135.107C184.599 136.377 182.939 138.255 180.808 140.464C176.768 144.689 174.693 146.843 171.372 149.08C167.664 151.565 165.091 152.338 163.707 152.697C161.964 153.111 160.304 153.498 158.284 153.056C154.991 152.31 153.026 149.88 152.307 148.941C150.481 146.622 150.066 144.357 149.318 139.939C148.765 136.708 148.654 134.251 148.488 129.501C148.405 127.237 148.295 124.475 148.35 120.775C148.405 116.605 148.627 111.662 149.235 106.139C149.512 103.654 149.899 100.589 150.508 97.109C150.038 96.447 149.54 95.784 149.014 95.093C148.461 94.375 147.935 93.685 147.381 92.995C145.97 94.182 144.587 95.397 143.175 96.585C142.816 96.723 142.179 96.944 141.404 96.861C139.938 96.723 139.08 95.701 138.776 95.37C137.42 93.823 137.613 91.8626 137.669 91.476C139.578 89.4049 141.487 87.3614 143.424 85.2903C143.452 84.1029 143.618 82.5565 144.089 80.8444C144.448 79.5742 144.891 78.5248 145.306 77.6412C145.666 76.9232 146.164 76.1224 146.8 75.3216C147.935 73.8304 149.152 72.781 150.149 72.0631C149.346 72.4221 149.152 72.4221 149.097 72.3668C148.959 72.1459 150.259 70.5167 152.086 70.351C153.109 70.2405 153.912 70.6271 154.465 70.8757C155.323 71.2899 155.904 71.8145 156.264 72.2011C157.979 70.7376 159.695 69.274 161.411 67.8381C162.019 68.1971 162.628 68.6113 163.237 69.0255C164.648 69.992 165.921 70.9585 167.056 71.8974C166.641 72.4221 166.115 73.002 165.451 73.5819C164.344 74.5484 163.237 75.1283 162.379 75.5149C162.905 75.6805 163.846 76.0671 164.316 76.9784C164.787 77.8621 164.593 78.8286 164.316 80.0436C164.122 80.872 163.873 81.5348 163.68 81.9766C163.79 83.1364 163.846 84.7104 163.514 86.4778C162.988 89.3773 161.77 91.5312 160.94 92.774C160.913 93.851 160.885 95.535 160.94 97.606C161.162 106.139 162.407 111.137 163.209 117.433C163.68 121.023 164.15 126.353 164.012 133.063C164.648 132.649 165.561 131.986 166.585 131.13C169.186 128.949 170.847 126.767 173.033 123.564C175.191 120.443 176.602 118.124 178.512 115.031C179.701 113.015 181.611 109.95 184.018 106.056Z" fill="white"/>
<path opacity="0.24" d="M158.865 80.8444C158.284 82.1146 157.703 83.4125 157.122 84.738C155.434 88.7145 154.05 92.525 152.916 96.17C152.667 101.914 152.528 106.719 152.418 110.198C152.279 115.473 152.611 121.769 153.22 134.361C153.469 139.553 153.69 142.701 156.126 144.993C158.671 147.367 162.213 147.423 164.205 147.423C174.831 147.395 182.773 138.365 184.959 135.742C181.998 140.768 178.622 144.054 176.325 145.987C173.724 148.168 170.376 150.902 165.174 152.255C160.774 153.415 158.782 153.166 158.256 153.056C154.465 152.145 152.362 148.997 151.615 147.92C149.816 145.241 149.235 142.452 148.903 136.46C148.571 130.302 148.931 128.672 149.042 120.195C149.125 112.104 148.82 109.812 149.429 104.206C149.789 100.92 150.232 98.214 150.591 96.391C149.512 95.259 148.433 94.127 147.354 93.022C146.441 93.823 145.5 94.596 144.559 95.397C143.95 95.922 143.314 96.446 142.705 96.944C142.152 96.999 141.349 96.971 140.491 96.612C138.278 95.673 136.894 92.939 137.586 92.001C138.029 91.3654 139.191 91.8625 140.796 91.8625C143.563 91.8901 145.417 90.4818 149.097 87.8308C151.698 85.9254 154.687 83.7991 158.865 80.8444Z" fill="#9B9797"/>
<path d="M183.658 105.835C177.266 114.644 172.535 124.751 164.455 132.262C164.067 132.621 164.648 133.201 165.036 132.842C173.171 125.276 177.93 115.114 184.378 106.25C184.71 105.835 183.99 105.421 183.658 105.835Z" fill="#006400"/>
<path d="M159.861 153.691C170.819 152.973 178.678 143.805 185.263 136.018C185.595 135.604 185.014 135.024 184.682 135.438C178.29 143.06 170.542 152.172 159.889 152.89C159.335 152.89 159.335 153.719 159.861 153.691Z" fill="#006400"/>
<path d="M154.659 75.9015C154.714 78.083 156.153 79.9608 158.256 80.5683C158.782 80.7064 159.003 79.9056 158.478 79.7675C156.734 79.2704 155.544 77.6964 155.489 75.9015C155.461 75.3768 154.631 75.3768 154.659 75.9015Z" fill="#006400"/>
<path d="M155.517 75.6529C155.793 73.2505 160.082 74.9902 161.245 75.5977C162.379 76.1776 163.514 76.7575 163.763 78.1382C163.956 79.1876 163.624 80.2921 163.348 81.3139C163.209 81.8385 164.012 82.0595 164.15 81.5348C164.538 80.1541 164.953 78.58 164.372 77.2269C163.818 75.8462 162.296 75.2111 161.051 74.6036C159.778 73.9961 158.395 73.5542 156.956 73.7199C156.375 73.8028 155.627 73.9408 155.157 74.3274C154.659 74.714 154.77 74.9902 154.687 75.6805C154.631 76.1776 155.461 76.1776 155.517 75.6529Z" fill="#006400"/>
<path d="M163.071 81.1482C162.988 83.2469 163.458 85.2903 162.96 87.389C162.49 89.322 161.549 91.1169 160.608 92.857C160.359 93.326 161.079 93.74 161.328 93.271C162.296 91.4483 163.265 89.5981 163.763 87.6099C164.289 85.456 163.818 83.3297 163.901 81.1482C163.929 80.5959 163.099 80.5959 163.071 81.1482Z" fill="#006400"/>
<path d="M160.608 92.884C159.972 107.437 164.15 121.686 163.486 136.239C163.458 136.763 164.288 136.763 164.316 136.239C164.98 121.686 160.802 107.437 161.438 92.884C161.466 92.359 160.636 92.359 160.608 92.884Z" fill="#006400"/>
<path d="M147.022 93.188C147.852 94.348 148.737 95.452 149.733 96.474C150.093 96.861 150.674 96.281 150.315 95.894C149.374 94.9 148.516 93.878 147.741 92.774C147.409 92.332 146.69 92.746 147.022 93.188Z" fill="#006400"/>
<path d="M150.204 96.253C148.627 105.228 147.852 114.341 147.879 123.453C147.907 127.982 148.129 132.538 148.571 137.04C148.931 140.878 149.374 144.91 151.394 148.279C153.22 151.344 156.43 153.663 160.083 153.581C160.608 153.553 160.608 152.725 160.083 152.752C154.963 152.89 151.67 148.334 150.481 143.86C149.152 138.945 149.042 133.588 148.848 128.534C148.433 117.82 149.18 107.05 151.034 96.502C151.089 95.949 150.287 95.728 150.204 96.253Z" fill="#006400"/>
<path d="M144.974 83.8543C142.373 86.0359 139.855 88.3278 137.475 90.7303C137.088 91.1169 137.696 91.6968 138.056 91.3102C140.464 88.9078 142.954 86.6157 145.555 84.4342C145.97 84.1028 145.389 83.5229 144.974 83.8543Z" fill="#006400"/>
<path d="M137.226 91.4759C136.811 94.679 139.246 97.385 142.484 97.358C143.009 97.358 143.009 96.529 142.484 96.529C139.689 96.557 137.696 94.21 138.056 91.4759C138.139 90.9512 137.309 90.9512 137.226 91.4759Z" fill="#006400"/>
<path d="M138.001 91.2827C140.906 91.3655 142.926 93.961 142.318 96.778C142.207 97.303 143.009 97.524 143.12 96.999C143.867 93.602 141.487 90.5647 138.001 90.4542C137.475 90.4542 137.475 91.2827 138.001 91.2827Z" fill="#006400"/>
<path d="M143.452 96.861C146.607 93.989 149.816 91.1445 152.888 88.1898C154.299 86.8367 155.655 85.456 156.928 83.9648C157.62 83.164 159.363 81.59 159.391 80.4854C159.391 80.3473 159.308 80.1816 159.197 80.1264C159.142 80.0988 159.086 80.0712 159.059 80.0712C158.893 79.9883 158.671 79.9883 158.561 80.1264C158.533 80.154 158.505 80.1816 158.478 80.2369C158.146 80.6511 158.727 81.231 159.059 80.8168C159.086 80.7892 159.114 80.7615 159.142 80.7063C158.976 80.7339 158.81 80.7615 158.644 80.7615C158.588 80.513 158.505 80.513 158.395 80.7892C158.256 80.9825 158.118 81.1758 157.952 81.3691C157.62 81.7833 157.315 82.1975 156.956 82.6117C156.402 83.3021 155.793 83.9648 155.212 84.6276C153.995 85.953 152.722 87.1957 151.421 88.4107C148.599 91.0617 145.721 93.63 142.871 96.253C142.456 96.64 143.065 97.22 143.452 96.861Z" fill="#006400"/>
<path d="M143.812 85.4007C144.006 84.0752 144.199 82.7498 144.393 81.4243C144.531 80.4301 144.642 79.3256 145.195 78.4419C146.468 76.3985 148.267 77.862 149.235 79.2427C149.65 79.8226 150.038 80.4578 150.453 81.0377C150.674 81.369 151.753 82.5565 151.615 82.9707C151.753 82.8602 151.892 82.7774 152.003 82.6669C151.947 82.6669 151.92 82.6669 151.864 82.6669C151.338 82.6393 151.338 83.4677 151.864 83.4953C151.92 83.4953 151.947 83.4953 152.003 83.4953C152.196 83.4953 152.362 83.3573 152.39 83.1916C152.584 82.5012 152.113 82.087 151.753 81.5347C151.062 80.513 150.398 79.4636 149.678 78.4695C148.931 77.4478 147.963 76.4537 146.579 76.5917C145.251 76.7298 144.448 77.7516 144.033 78.939C143.341 80.8996 143.286 83.1364 142.982 85.1798C142.926 85.7045 143.729 85.9254 143.812 85.4007Z" fill="#006400"/>
<path d="M145.112 82.2804C145.86 83.744 147.105 85.2352 148.876 85.3456C150.342 85.4561 151.726 84.6276 152.113 83.1917C152.252 82.667 151.449 82.4461 151.311 82.9708C150.951 84.2963 149.484 84.7933 148.267 84.3791C147.105 83.9649 146.358 82.9432 145.832 81.8938C145.583 81.3967 144.863 81.811 145.112 82.2804Z" fill="#006400"/>
<path d="M146.136 76.8956C146.275 75.5425 147.824 75.1835 148.876 75.5425C149.983 75.9015 150.84 76.8956 151.615 77.6964C152.224 78.3316 153.414 79.2152 153.58 80.0989C153.801 81.2863 152.307 82.0871 151.311 82.3909C150.813 82.5289 151.006 83.3298 151.532 83.1917C152.75 82.8327 154.521 81.7557 154.714 80.3198C154.797 79.7399 154.438 79.4361 154.05 79.0219C153.275 78.1935 152.528 77.3927 151.726 76.5919C150.647 75.4873 149.263 74.2999 147.603 74.576C146.358 74.7693 145.444 75.5977 145.306 76.868C145.251 77.4203 146.081 77.4203 146.136 76.8956Z" fill="#006400"/>
<path d="M147.63 74.8521C148.018 74.4103 148.212 73.8304 148.571 73.3886C149.457 72.284 150.84 73.3057 151.753 73.9685C153.524 75.2111 155.406 77.4755 153.801 79.6294C153.497 80.0712 154.216 80.4854 154.521 80.0436C156.236 77.724 154.548 75.0454 152.584 73.5542C151.67 72.8639 150.287 71.6212 149.042 71.9802C147.935 72.284 147.741 73.5542 147.049 74.2998C146.69 74.6588 147.271 75.2387 147.63 74.8521Z" fill="#006400"/>
<path d="M150.425 72.3391C151.394 71.1517 152.667 69.9091 154.161 71.1517C155.157 71.9525 155.793 73.0847 156.153 74.2721C156.319 74.7692 157.094 74.5759 156.956 74.0512C156.485 72.4496 155.406 70.5994 153.801 69.9367C152.169 69.2739 150.813 70.5718 149.844 71.7592C149.512 72.1458 150.093 72.7533 150.425 72.3391Z" fill="#006400"/>
<path d="M156.541 72.4496C158.256 70.986 159.972 69.5225 161.687 68.0865C162.102 67.7276 161.494 67.1476 161.106 67.5066C159.391 68.9702 157.675 70.4338 155.959 71.8697C155.544 72.2287 156.153 72.8086 156.541 72.4496Z" fill="#006400"/>
<path d="M162.656 75.9842C164.289 74.7968 165.866 73.5266 167.332 72.1459C167.72 71.7869 167.139 71.207 166.751 71.566C165.312 72.8914 163.818 74.1341 162.241 75.2663C161.798 75.57 162.213 76.288 162.656 75.9842Z" fill="#006400"/>
<path d="M175.08 73.9132C184.311 73.9132 191.794 66.4457 191.794 57.2341C191.794 48.0225 184.311 40.5551 175.08 40.5551C165.85 40.5551 158.367 48.0225 158.367 57.2341C158.367 66.4457 165.85 73.9132 175.08 73.9132Z" stroke="#006400" stroke-width="3" stroke-miterlimit="10"/>
<path d="M164.953 59.2776C171.096 55.3563 177.377 51.656 183.797 48.1766C184.267 47.9281 183.852 47.2101 183.382 47.4586C176.962 50.9104 170.681 54.6108 164.538 58.5596C164.095 58.8634 164.51 59.5813 164.953 59.2776Z" fill="#006400"/>
<path d="M165.644 66.5125C170.708 62.8122 175.827 59.25 181.057 55.7706C181.5 55.4668 181.085 54.7488 180.642 55.0526C175.44 58.532 170.293 62.1219 165.229 65.7946C164.787 66.0983 165.202 66.8163 165.644 66.5125Z" fill="#006400"/>
</g>
</g>
</g>
<defs>
<filter id="filter0_d_1_273" x="-12.9375" y="-7.82544" width="343.938" height="311.825" filterUnits="userSpaceOnUse" color-interpolation-filters="sRGB">
<feFlood flood-opacity="0" result="BackgroundImageFix"/>
<feColorMatrix in="SourceAlpha" type="matrix" values="0 0 0 0 0 0 0 0 0 0 0 0 0 0 0 0 0 0 127 0" result="hardAlpha"/>
<feOffset dy="4"/>
<feGaussianBlur stdDeviation="2"/>
<feComposite in2="hardAlpha" operator="out"/>
<feColorMatrix type="matrix" values="0 0 0 0 0 0 0 0 0 0 0 0 0 0 0 0 0 0 0.25 0"/>
<feBlend mode="normal" in2="BackgroundImageFix" result="effect1_dropShadow_1_273"/>
<feBlend mode="normal" in="SourceGraphic" in2="effect1_dropShadow_1_273" result="shape"/>
</filter>
</defs>
</svg>
